<?xml version="1.0" standalone="no"?>
<!DOCTYPE svg PUBLIC "-//W3C//DTD SVG 20010904//EN"
 "http://www.w3.org/TR/2001/REC-SVG-20010904/DTD/svg10.dtd">
<svg version="1.0" xmlns="http://www.w3.org/2000/svg"
 width="512.000000pt" height="512.000000pt" viewBox="0 0 512.000000 512.000000"
 preserveAspectRatio="xMidYMid meet">
<metadata>
Created by potrace 1.11, written by Peter Selinger 2001-2013
</metadata>
<g transform="translate(0.000000,512.000000) scale(0.100000,-0.100000)"
fill="#000000" stroke="none">
<path d="M2379 5116 c-2 -2 -35 -6 -74 -10 -389 -34 -868 -204 -1158 -412 -26
-19 -49 -34 -52 -34 -3 0 -13 -6 -22 -14 -10 -8 -56 -45 -103 -82 -344 -273
-623 -644 -782 -1039 -24 -60 -79 -214 -83 -235 -2 -8 -13 -49 -24 -90 -11
-41 -22 -86 -25 -100 -3 -14 -9 -47 -14 -75 -11 -55 -20 -120 -32 -235 -8 -77
-5 -468 3 -505 3 -12 8 -48 12 -80 4 -33 9 -67 10 -75 56 -285 122 -485 236
-714 265 -529 706 -951 1249 -1196 193 -87 507 -175 695 -196 33 -3 83 -10
110 -14 51 -8 469 -5 515 4 14 2 45 7 70 11 25 3 81 13 125 21 44 9 94 18 110
21 49 8 253 72 346 108 145 56 328 150 460 238 436 288 764 677 963 1140 34
80 92 240 101 277 1 8 10 40 19 70 15 54 49 220 60 290 14 97 21 212 21 370 0
214 -11 334 -45 500 -6 30 -14 66 -16 80 -3 14 -16 63 -29 110 -139 491 -408
913 -799 1252 -65 57 -251 198 -260 198 -3 0 -33 19 -67 41 -148 99 -511 257
-649 284 -12 2 -37 9 -54 14 -40 13 -217 48 -281 56 -27 4 -61 9 -75 11 -28 6
-456 15 -461 10z m401 -380 c1117 -119 1962 -1053 1964 -2171 0 -179 -21 -370
-55 -500 -6 -22 -12 -47 -14 -55 -16 -85 -80 -259 -143 -390 -112 -236 -251
-429 -450 -625 -92 -91 -107 -103 -110 -83 -1 13 -3 664 -5 1448 l-2 1424 -22
-1 c-13 0 -28 -1 -34 -2 -16 -2 -78 -70 -116 -129 -101 -156 -204 -454 -248
-714 -3 -18 -8 -40 -10 -48 -6 -22 -43 -265 -49 -330 -3 -30 -10 -91 -15 -135
-5 -44 -9 -87 -9 -95 0 -8 -3 -51 -6 -95 -12 -157 -16 -233 -21 -475 l-6 -245
52 -18 c76 -27 153 -107 174 -181 26 -91 21 -177 -18 -296 -18 -55 -21 -90
-21 -220 l-1 -155 -105 -52 c-130 -65 -269 -115 -422 -154 -64 -16 -119 -29
-122 -29 -3 0 -6 251 -6 559 l0 558 -26 124 c-68 333 -20 563 160 754 112 119
155 244 135 391 -4 33 -11 86 -14 119 -4 33 -8 71 -10 85 -2 14 -6 54 -10 90
-4 36 -8 76 -10 90 -2 14 -6 50 -10 80 -3 30 -8 71 -10 90 -3 19 -7 60 -10 90
-9 89 -25 223 -31 248 -4 19 -11 22 -55 22 l-50 0 6 -187 c3 -104 7 -269 10
-368 3 -99 7 -260 10 -357 l6 -177 -63 1 -63 2 0 540 0 541 -39 3 c-21 2 -42
-1 -45 -7 -3 -5 -6 -252 -6 -548 l0 -539 -50 1 -50 1 -3 547 -2 547 -50 0 -50
0 0 -545 c0 -300 -3 -546 -7 -546 -5 -1 -32 -2 -61 -3 l-54 -2 7 210 c3 116 7
258 10 316 2 58 6 202 10 320 4 118 7 217 7 220 2 27 -5 31 -49 28 -50 -3 -47
2 -58 -93 -3 -27 -9 -84 -15 -125 -5 -41 -12 -98 -15 -126 -3 -28 -7 -59 -9
-70 -2 -10 -7 -48 -11 -84 -3 -36 -8 -76 -10 -90 -2 -14 -7 -50 -10 -80 -10
-81 -12 -94 -21 -163 -11 -74 -12 -199 -2 -244 12 -63 68 -159 129 -223 212
-225 261 -451 168 -776 l-31 -107 0 -578 0 -578 -111 4 c-62 2 -134 7 -162 10
-116 13 -121 14 -335 61 -37 8 -233 73 -249 83 -11 7 -13 99 -14 502 0 489 0
493 -24 562 -12 38 -25 78 -27 90 -3 12 -11 54 -19 92 -44 206 -36 409 18 487
6 9 43 34 82 54 76 38 172 126 225 205 208 307 204 760 -9 1051 -229 313 -672
304 -891 -18 -61 -91 -112 -215 -128 -309 -2 -16 -8 -55 -13 -85 -12 -78 -5
-253 14 -335 52 -220 177 -406 338 -501 32 -19 64 -34 71 -34 21 0 43 -41 61
-110 32 -124 7 -372 -59 -584 -25 -80 -25 -85 -25 -421 0 -187 0 -362 0 -388
l-1 -49 -52 37 c-157 112 -274 221 -443 416 -62 70 -199 288 -256 404 -96 197
-172 433 -195 605 -3 25 -8 48 -10 51 -7 12 -18 199 -18 309 0 109 9 258 19
311 3 13 7 41 10 64 4 22 19 92 35 156 195 779 809 1392 1588 1588 64 17 140
33 167 37 28 3 52 8 55 9 3 2 48 7 100 10 52 4 96 8 98 10 5 4 270 -3 332 -9z
m-1593 -1578 c-2 -241 3 -290 37 -388 33 -95 105 -257 134 -303 38 -62 17 -56
-51 14 -104 107 -182 241 -210 365 -28 120 -1 327 60 467 14 31 27 57 29 57 2
0 2 -96 1 -212z"/>
</g>
</svg>
